PathFileType	4	(X/Y/Z)	C:/Users/opensim2020/Desktop/walking_exp_matlab/subject03_walking06_straight_03.trc																																																																																																																																		
DataRate	CameraRate	NumFrames	NumMarkers	Units	OrigDataRate	OrigDataStartFrame	OrigNumFrames																																																																																																																														
100	100	6	44	mm	100	2065	280																																																																																																																														
Frame#	Time	LFHD			RFHD			LBHD			RBHD			C7			T10			CLAV			STRN			RBAK			LSHO			LUPA			LELB			LFRM			LWRA			LWRB			LFIN			RSHO			RUPA			RELB			RFRM			RWRA			RWRB			RFIN			LASI			RASI			LPSI			RPSI			LTHI			LKNE			LTIB			LANK			LHEE			LTOE			RTHI			RKNE			RTIB			RANK			RHEE			RTOE			*39			*40			*41			*42			*43		
		X1	Y1	Z1	X2	Y2	Z2	X3	Y3	Z3	X4	Y4	Z4	X5	Y5	Z5	X6	Y6	Z6	X7	Y7	Z7	X8	Y8	Z8	X9	Y9	Z9	X10	Y10	Z10	X11	Y11	Z11	X12	Y12	Z12	X13	Y13	Z13	X14	Y14	Z14	X15	Y15	Z15	X16	Y16	Z16	X17	Y17	Z17	X18	Y18	Z18	X19	Y19	Z19	X20	Y20	Z20	X21	Y21	Z21	X22	Y22	Z22	X23	Y23	Z23	X24	Y24	Z24	X25	Y25	Z25	X26	Y26	Z26	X27	Y27	Z27	X28	Y28	Z28	X29	Y29	Z29	X30	Y30	Z30	X31	Y31	Z31	X32	Y32	Z32	X33	Y33	Z33	X34	Y34	Z34	X35	Y35	Z35	X36	Y36	Z36	X37	Y37	Z37	X38	Y38	Z38	X39	Y39	Z39	X40	Y40	Z40	X41	Y41	Z41	X42	Y42	Z42	X43	Y43	Z43	X44	Y44	Z44
																																																																																																																																					
71	0.7	-557.18091	1622.98767	1385.64465	-562.73712	1620.79297	1518.83997	-681.26758	1568.31384	1383.021	-681.91656	1566.33496	1514.37305	-706.20392	1416.35217	1432.00476	-749.82928	1104.40088	1428.27344	-586.77325	1335.29199	1436.84656	-548.0766	1169.9032	1427.66687	-767.93713	1241.22156	1521.84998	-623.08252	1378.4054	1281.48206	-613.95532	1186.34314	1208.75708	-586.80164	1066.95886	1195.83044	-520.38116	956.09741	1200.68884	-458.67529	857.53931	1236.94604	-483.31378	848.60284	1187.60864	-431.56433	784.40143	1199.63696	-638.88605	1357.97119	1594.83533	-654.64697	1134.13391	1661.56384	-646.53723	1021.10645	1672.375	-640.21985	883.98102	1672.17297	-616.03815	787.05005	1635.80896	-649.16357	783.72034	1679.12085	-632.11188	710.79077	1666.97559	-589.2356	932.02368	1309.79932	-579.37634	945.02454	1547.18201	-747.91296	958.14136	1367.00623	-742.0918	971.87653	1514.21838	-680.70032	635.45636	1262.80945	-708.25714	457.17938	1282.17383	-856.63135	318.68063	1286.95532	-988.19177	156.5755	1330.24292	-1036.47632	155.74419	1370.56812	-900.80457	33.46341	1358.88562	-591.53284	651.89911	1592.62708	-540.45886	479.22211	1553.36829	-549.52753	288.6427	1557.87488	-528.3446	73.62049	1509.94507	-569.2348	40.9436	1457.82581	-384.36316	39.34916	1492.60181	-645.91675	1675.15564	1436.31311	NaN	NaN	NaN	NaN	NaN	NaN	NaN	NaN	NaN	NaN	NaN	NaN
72	0.71	-547.28992	1624.41248	1386.86182	-552.83044	1621.96143	1520.04663	-671.60431	1570.46777	1384.17969	-672.19995	1568.19775	1515.38672	-696.98431	1417.61121	1433.67334	-739.43744	1105.68054	1429.70398	-576.87244	1337.05212	1437.95178	-537.6665	1171.74744	1428.70654	-757.16046	1242.72595	1523.98059	-613.81549	1380.49487	1282.94421	-605.29163	1188.27112	1210.60144	-580.0022	1068.28284	1197.83472	-515.93732	955.91901	1201.87695	-456.26917	855.38647	1237.41846	-481.60748	847.45978	1188.29492	-432.01602	781.20575	1199.83337	-628.25079	1359.95142	1595.93677	-642.44666	1136.13708	1662.98633	-634.00317	1023.19617	1673.57373	-627.27228	886.22101	1673.90027	-603.52148	789.02478	1637.63232	-635.89111	785.88733	1681.48962	-619.74744	712.62067	1669.16211	-578.49316	933.54163	1311.6062	-569.1925	946.80566	1548.88635	-737.34955	960.01147	1368.0802	-731.52771	973.74219	1515.32971	-666.00031	635.41125	1262.52161	-689.94128	456.6246	1281.10327	-840.63196	320.93359	1286.56152	-975.5965	162.55493	1329.91626	-1023.52661	165.21049	1370.67029	-898.10681	34.15171	1358.40015	-584.8197	652.66797	1593.92358	-535.92639	479.30276	1554.92627	-546.78552	288.85205	1558.84424	-528.35352	73.60745	1510.02319	-569.17914	40.93976	1457.92542	-384.29184	39.19965	1492.62048	-635.59601	1677.07153	1437.80493	NaN	NaN	NaN	NaN	NaN	NaN	NaN	NaN	NaN	NaN	NaN	NaN
73	0.72	-537.53717	1625.53918	1387.95386	-542.96008	1622.9209	1521.20032	-662.05371	1572.34521	1385.32397	-662.70898	1569.84058	1516.56934	-687.71899	1418.54846	1435.22449	-729.19275	1106.73169	1431.25781	-567.15222	1338.44373	1438.90295	-527.44952	1173.31262	1429.65649	-746.07568	1243.89978	1526.0155	-604.86017	1382.16504	1284.38928	-596.62762	1189.86304	1212.24695	-573.28601	1069.51965	1199.76721	-511.63623	955.37061	1202.91638	-454.42136	852.9494	1237.89893	-479.92325	846.16333	1188.77917	-432.63846	777.77142	1199.92896	-617.5354	1361.74854	1597.00806	-630.31195	1137.92151	1664.5448	-621.28094	1025.16418	1675.19128	-614.03125	888.26758	1675.84229	-590.70013	790.83588	1639.47937	-622.55438	787.90155	1683.69751	-606.93317	714.27161	1671.47766	-568.10858	934.81696	1313.34106	-559.12305	947.92285	1550.51245	-726.93951	961.36548	1369.26318	-720.82867	975.14551	1516.55212	-651.2276	635.03937	1262.5719	-671.33313	455.68747	1280.55249	-823.13116	322.23505	1286.36694	-962.20654	168.4192	1329.74036	-1010.00464	174.21349	1370.52893	-892.61176	36.66775	1356.98242	-578.62152	653.10577	1594.95325	-531.35254	479.07846	1556.29333	-544.23096	288.98962	1559.41272	-528.53955	73.61754	1509.9812	-569.2514	40.92978	1457.97327	-384.31055	39.0813	1492.58521	-625.53241	1678.26709	1438.80457	NaN	NaN	NaN	NaN	NaN	NaN	NaN	NaN	NaN	NaN	NaN	NaN
74	0.73	-527.88892	1626.48975	1389.00928	-533.31439	1623.73975	1522.29187	-652.61401	1573.85327	1386.33337	-653.32684	1571.19556	1517.6842	-678.14465	1419.27942	1436.75757	-719.08759	1107.52283	1432.95056	-557.40173	1339.6322	1439.81238	-517.43213	1174.57983	1430.4978	-735.45972	1244.97327	1528.16418	-595.92883	1383.43604	1285.73914	-588.03497	1191.08704	1213.63831	-566.3606	1070.16357	1201.44214	-506.91946	954.72955	1203.90784	-452.04678	850.49255	1238.12122	-478.1973	844.70233	1189.16443	-433.50043	774.20386	1200.03857	-606.87244	1363.14294	1597.97144	-618.56146	1139.37805	1665.91943	-608.59424	1026.82947	1676.85913	-601.00409	889.87878	1677.65112	-577.51538	792.39557	1641.43079	-608.94861	789.57294	1685.97058	-593.93903	715.64893	1673.58044	-558.13202	935.76837	1314.94897	-549.19598	948.38831	1551.92773	-717.07416	962.47443	1370.59863	-710.5083	976.27771	1517.96301	-636.55316	634.37598	1262.96313	-652.6131	454.69614	1280.47192	-805.27417	323.49484	1285.99341	-948.56097	174.65662	1330.02429	-996.06476	182.15468	1371.00256	-883.07434	40.52292	1354.28345	-573.98138	652.94781	1593.61829	-526.97009	478.79434	1557.52356	-542.02618	289.01569	1560.10571	-528.75665	73.62231	1510.02783	-569.36475	40.92791	1458.02637	-384.38538	38.99427	1492.54053	NaN	NaN	NaN	NaN	NaN	NaN	NaN	NaN	NaN	NaN	NaN	NaN	NaN	NaN	NaN
75	0.74	-518.24213	1627.28467	1390.01355	-523.75928	1624.4657	1523.23376	-643.14014	1575.02222	1387.26477	-643.87384	1572.31042	1518.578	-669.05481	1420.23181	1438.34937	-709.17035	1108.08521	1434.66809	-547.86853	1340.51563	1440.58618	-507.49112	1175.57959	1431.38586	-725.10638	1245.74573	1530.33093	-587.14966	1384.37695	1286.86218	-579.59125	1191.83154	1214.88513	-559.33521	1070.46118	1202.78455	-502.29755	953.71637	1204.70801	-449.72708	847.77405	1238.27783	-476.40448	842.98083	1189.43591	-434.37296	770.47504	1200.078	-596.22748	1364.27466	1598.93884	-606.36487	1140.66541	1667.61218	-595.83575	1028.15906	1678.83899	-587.57697	891.22699	1679.66956	-564.05988	793.71063	1643.44128	-595.1377	790.9281	1688.25293	-580.44843	716.70209	1675.50183	-548.14471	936.58649	1316.43616	-539.21576	948.4566	1553.17236	-707.49829	963.08997	1372.04382	-700.48901	977.11859	1519.53223	-622.01697	633.64844	1263.58362	-633.41309	453.70319	1280.59253	-787.0318	324.81284	1285.96777	-934.2066	180.79326	1330.58667	-981.41595	188.78075	1372.32751	-871.27197	44.7139	1350.53027	-566.97235	653.91254	1596.50696	-522.58209	478.47144	1558.83997	-539.94196	289.15903	1560.8645	-528.86041	73.69121	1510.11511	-569.41705	40.96557	1458.15881	-384.38037	38.91901	1492.56946	-606.98456	1681.65173	1442.69141	NaN	NaN	NaN	NaN	NaN	NaN	NaN	NaN	NaN	NaN	NaN	NaN
76	0.75	-508.75803	1628.08447	1390.9043	-514.25641	1625.22668	1524.10352	-633.74951	1575.98059	1388.21069	-634.44446	1573.22314	1519.52209	-659.77698	1420.78174	1439.63977	-699.5285	1108.57153	1436.4021	-538.55206	1341.27979	1441.26624	-498.06381	1176.32117	1432.03125	-714.83112	1246.22363	1532.4198	-578.50922	1384.87048	1287.82581	-571.47473	1192.05603	1215.92468	-551.97534	1070.55225	1204.14392	-497.48016	952.32513	1205.44666	-446.89502	845.06995	1238.24097	-474.58057	841.10999	1189.51465	-435.43152	766.63879	1200.19653	-585.64618	1365.08508	1599.91614	-593.97638	1141.56165	1669.40588	-583.15771	1029.11646	1680.72229	-574.15436	892.26221	1681.70935	-550.42218	794.7655	1645.36096	-581.00214	791.95923	1690.47388	-566.55219	717.53412	1677.28027	-539.02063	936.97882	1317.35608	-529.34851	948.24213	1554.32886	-698.0708	963.14343	1373.4563	-690.78259	977.72821	1521.08594	-607.87701	633.1814	1264.35437	-613.82971	453.0676	1280.76892	-768.7345	326.73904	1286.65771	-918.76727	186.10583	1331.10022	-965.74023	194.19048	1373.86511	-857.33472	49.07276	1346.78015	-560.32233	654.53943	1598.1908	-518.46722	478.24423	1560.15466	-537.86633	289.29605	1561.57947	-528.83832	73.69884	1510.16174	-569.43359	41.0831	1458.30615	-384.31125	38.78675	1492.57166	NaN	NaN	NaN	NaN	NaN	NaN	NaN	NaN	NaN	NaN	NaN	NaN	NaN	NaN	NaN
